<?xml version="1.0" encoding="UTF-8" standalone="no"?>
<!-- Created with Inkscape (http://www.inkscape.org/) -->

<svg
   width="117mm"
   height="120mm"
   viewBox="0 0 117 120"
   version="1.1"
   id="svg5"
   xmlns="http://www.w3.org/2000/svg"
   xmlns:svg="http://www.w3.org/2000/svg">
  <defs
     id="defs2" />
  <g
     id="layer1">
    <path
       fill="currentColor"
       d="m 67.531649,35.285531 c -12.88521,0.47625 -44.84687,4.10104 -44.84687,31.08854 0,28.97187 36.59187,30.1625 48.55104,11.43 1.71979,2.69875 9.36625,9.92187 11.98562,12.3825 l 15.02834,-14.81667 c 0,0 -8.54604,-6.69396 -8.54604,-13.97 V 22.479696 c 0,-6.693958 -6.4823,-21.77520841 -29.71271,-21.77520841 -23.28334,0 -35.63938,14.55208341 -35.63938,27.59604141 l 19.44688,1.799167 c 4.31271,-13.096875 14.34041,-13.096875 14.34041,-13.096875 10.76855,-0.02646 9.39271,7.884583 9.39271,18.28271 z m 0,22.96583 c 0,21.16667 -22.27791,17.99167 -22.27791,4.55083 0,-12.48833 13.36145,-15.00187 22.27791,-15.29291 z m 35.983341,43.259379 c -2.0373,2.64583 -18.520841,17.72708 -46.169801,17.72708 -27.64896,0 -48.8156203,-18.91771 -55.2979103,-26.722919 -1.79917001,-2.03729 0.26458,-2.98979 1.4552,-2.19604 19.3939603,11.773959 49.6887603,31.167919 98.5573013,8.01688 1.98437,-0.97896 3.51896,0.52916 1.45521,3.174999 z m 10.53041,0.58208 c -1.71979,4.18042 -4.23333,7.09083 -5.60916,8.20208 -1.45521,1.19063 -2.51355,0.71438 -1.7198,-1.00541 0.79375,-1.7198 5.10646,-12.303129 3.36021,-14.552089 -1.71979,-2.19604 -9.78958,-1.13771 -12.700001,-0.84666 -2.8575,0.26458 -3.43958,0.52916 -3.70416,-0.0794 -0.60855,-1.50812 5.74145,-4.10104 9.921871,-4.63021 4.15396,-0.47625 10.84792,-0.21166 12.17083,1.50813 0.97896,1.34937 0,7.17021 -1.71979,11.403539 z"
       id="path832"
       style="stroke-width:0.264583;fill:#ffffff;fill-opacity:1" />
  </g>
</svg>
