<?xml version="1.0" encoding="UTF-8" standalone="no"?>
<!-- Created with Inkscape (http://www.inkscape.org/) -->

<svg
   width="1440"
   height="1920"
   viewBox="0 0 381.00042 508.0002"
   version="1.1"
   id="svg5"
   xmlns="http://www.w3.org/2000/svg"
   xmlns:svg="http://www.w3.org/2000/svg">
  <defs
     id="defs2" />
  <g
     id="layer1">
    <g
       id="g1525"
       transform="matrix(2.2882789,0,0,2.2882789,449.00154,-4.9221172)">
      <path
         style="fill:none;stroke:#000000;stroke-width:2.38125;stroke-linecap:butt;stroke-linejoin:miter;stroke-miterlimit:4;stroke-dasharray:none;stroke-opacity:1"
         d="m -32.338274,111.57522 0.927068,-10.03413 -9.379736,-12.433605 -0.708932,-7.525602 -10.361337,-12.160935 -3.108399,-15.214803 -1.908667,6.925736 -6.434937,-16.414539 4.642721,26.618377 -9.813661,-20.049725 -0.308488,4.241699 -8.869005,-12.647974 9.10037,22.905172 -10.257197,-9.177494 -14.036167,-5.784133 -12.493729,-1.079706 -8.94613,1.002583 -21.05425,-11.028416 12.49373,-21.516981 -2.62214,-10.9512952 -2.08229,6.1697432 -21.43986,-2.15941 -11.64539,1.388193 -14.88451,6.401109 13.72768,1.079705 -11.79963,3.084872 -21.67123,12.262365 17.27529,-0.771218 8.09779,1.928045 4.85867,6.555354 -4.01034,11.336903 26.37566,-2.236533 10.41144,4.010334 -24.91034,14.421776 12.64798,-1.619559 -24.06201,24.756096 13.88193,-6.94096 -10.56569,35.013296 12.57086,-12.49373 8.869,34.70481 4.9358,-19.35757 12.80221,31.92842 7.4037,-13.34207 0.46273,2.4679 -3.93322,12.10812 -1.46531,7.55793 -7.7893,-2.39077 -1.7738,-9.87159 -5.93838,8.17491 11.79964,13.34207 14.11328,-9.79447 2.54502,-15.42436 0.6941,28.9978 10.488564,-8.32916 -13.033584,20.74576 9.71735,4.01034 -21.36274,10.87417 6.94096,3.77897 -13.65056,3.00775 -14.80738,-4.01033 -7.7893,-11.79964 -6.09262,-10.48856 -1.92805,-6.86384 0.0771,-14.80739 -5.01292,20.36016 5.78414,18.20074 12.57085,12.7251 15.65573,6.63247 17.89225,-4.85867 18.200747,-13.88193 8.56052,-14.57601 3.778967,-10.18008 0.385609,-16.58119 -8.714761,-17.50664 6.709595,-2.69927 -15.270117,-17.66089 -11.41402,-2.77638 -14.65315,-19.20333 22.75094,-10.257199 3.77896,8.637639 -10.71993,7.09521 18.740599,-0.92546 -6.092622,-23.367908 -11.182657,1.233948 -3.39336,-6.092621 3.47048,-4.935795 11.105537,-1.928045 16.658307,1.850922 11.645392,13.419193 1.233948,7.018083 16.658309,7.018083 12.108122,9.87159 5.938377,-0.61697 z"
         id="path869" />
      <path
         style="fill:none;stroke:#000000;stroke-width:2.38125;stroke-linecap:butt;stroke-linejoin:miter;stroke-miterlimit:4;stroke-dasharray:none;stroke-opacity:1"
         d="m -34.242097,110.66978 -7.403674,-6.24687 1.157399,-8.214212 3.00718,-1.503132 -11.395288,-7.866425 7.384953,-4.78155"
         id="path1059" />
      <path
         style="fill:none;stroke:#000000;stroke-width:2.38125;stroke-linecap:butt;stroke-linejoin:miter;stroke-miterlimit:4;stroke-dasharray:none;stroke-opacity:1"
         d="m -49.666437,86.839141 7.866425,17.275279 -4.781553,-0.77121 -6.323987,-28.535068"
         id="path1061" />
      <path
         style="fill:none;stroke:#000000;stroke-width:2.38125;stroke-linecap:butt;stroke-linejoin:miter;stroke-miterlimit:4;stroke-dasharray:none;stroke-opacity:1"
         d="m -50.437655,72.340244 -19.434691,14.807385 17.082191,14.035941"
         id="path1063" />
      <path
         style="fill:none;stroke:#000000;stroke-width:2.38125;stroke-linecap:butt;stroke-linejoin:miter;stroke-miterlimit:4;stroke-dasharray:none;stroke-opacity:1"
         d="m -70.02659,86.433766 1.079704,-20.88024"
         id="path1065" />
      <path
         style="fill:none;stroke:#000000;stroke-width:2.38125;stroke-linecap:butt;stroke-linejoin:miter;stroke-miterlimit:4;stroke-dasharray:none;stroke-opacity:1"
         d="M -55.064961,75.887846 -68.792642,65.862014"
         id="path1067" />
      <path
         style="fill:none;stroke:#000000;stroke-width:2.38125;stroke-linecap:butt;stroke-linejoin:miter;stroke-miterlimit:4;stroke-dasharray:none;stroke-opacity:1"
         d="M -55.681938,75.425116 -74.962384,49.974923"
         id="path1069" />
      <path
         style="fill:none;stroke:#000000;stroke-width:2.38125;stroke-linecap:butt;stroke-linejoin:miter;stroke-miterlimit:4;stroke-dasharray:none;stroke-opacity:1"
         d="m -68.946886,65.70777 -16.736,-0.385265 c 3.821205,-4.731059 4.470819,-6.14843 6.864412,-9.023594"
         id="path1071" />
      <path
         style="fill:none;stroke:#000000;stroke-width:2.38125;stroke-linecap:butt;stroke-linejoin:miter;stroke-miterlimit:4;stroke-dasharray:none;stroke-opacity:1"
         d="m -99.795604,62.314412 6.786719,-10.951297"
         id="path1073" />
      <path
         style="fill:none;stroke:#000000;stroke-width:2.38125;stroke-linecap:butt;stroke-linejoin:miter;stroke-miterlimit:4;stroke-dasharray:none;stroke-opacity:1"
         d="m -106.27383,49.974923 6.63247,13.573437"
         id="path1075" />
      <path
         style="fill:none;stroke:#000000;stroke-width:2.38125;stroke-linecap:butt;stroke-linejoin:miter;stroke-miterlimit:4;stroke-dasharray:none;stroke-opacity:1"
         d="m -98.561653,71.72327 -1.233951,-8.483399 13.303339,2.236876"
         id="path1077" />
      <path
         style="fill:none;stroke:#000000;stroke-width:2.38125;stroke-linecap:butt;stroke-linejoin:miter;stroke-miterlimit:4;stroke-dasharray:none;stroke-opacity:1"
         d="m -118.15059,72.340244 10.02583,-5.552768 8.174912,-3.701846"
         id="path1079" />
      <path
         style="fill:none;stroke:#000000;stroke-width:2.38125;stroke-linecap:butt;stroke-linejoin:miter;stroke-miterlimit:4;stroke-dasharray:none;stroke-opacity:1"
         d="m -130.18159,57.378615 12.33949,3.701846 3.93309,-10.044799"
         id="path1081" />
      <path
         style="fill:none;stroke:#000000;stroke-width:2.38125;stroke-linecap:butt;stroke-linejoin:miter;stroke-miterlimit:4;stroke-dasharray:none;stroke-opacity:1"
         d="M -131.2613,76.813308 -117.53362,61.38895"
         id="path1083" />
      <path
         style="fill:none;stroke:#000000;stroke-width:2.38125;stroke-linecap:butt;stroke-linejoin:miter;stroke-miterlimit:4;stroke-dasharray:none;stroke-opacity:1"
         d="m -117.45615,61.928917 9.02291,5.629775"
         id="path1198" />
      <path
         style="fill:none;stroke:#000000;stroke-width:2.38125;stroke-linecap:butt;stroke-linejoin:miter;stroke-miterlimit:4;stroke-dasharray:none;stroke-opacity:1"
         d="m -117.72647,62.353716 -0.42412,11.220476 8.32915,0.462732"
         id="path1200" />
      <path
         style="fill:none;stroke:#000000;stroke-width:2.38125;stroke-linecap:butt;stroke-linejoin:miter;stroke-miterlimit:4;stroke-dasharray:none;stroke-opacity:1"
         d="m -117.8421,73.88268 -7.09521,12.802219 14.34466,-1.542208 z"
         id="path1202" />
      <path
         style="fill:none;stroke:#000000;stroke-width:2.38125;stroke-linecap:butt;stroke-linejoin:miter;stroke-miterlimit:4;stroke-dasharray:none;stroke-opacity:1"
         d="m -130.79857,57.378615 -12.64797,11.722513 12.18524,7.866424 5.86126,10.025834 -1.69668,15.578604"
         id="path1204" />
      <path
         style="fill:none;stroke:#000000;stroke-width:2.38125;stroke-linecap:butt;stroke-linejoin:miter;stroke-miterlimit:4;stroke-dasharray:none;stroke-opacity:1"
         d="m -143.2923,69.409616 -10.6428,17.121039 22.36532,-8.483399 -7.55794,15.270118 -12.95646,15.424356 -2.85339,-21.74743"
         id="path1206" />
      <path
         style="fill:none;stroke:#000000;stroke-width:2.38125;stroke-linecap:butt;stroke-linejoin:miter;stroke-miterlimit:4;stroke-dasharray:none;stroke-opacity:1"
         d="m -151.92994,108.74173 13.18795,14.42235 9.17737,-4.85924 -6.78671,-13.88193 -2.93063,-10.951295"
         id="path1208" />
      <path
         style="fill:none;stroke:#000000;stroke-width:2.38125;stroke-linecap:butt;stroke-linejoin:miter;stroke-miterlimit:4;stroke-dasharray:none;stroke-opacity:1"
         d="m -135.8886,104.42291 8.75281,-1.5422"
         id="path1210" />
      <path
         style="fill:none;stroke:#000000;stroke-width:2.38125;stroke-linecap:butt;stroke-linejoin:miter;stroke-miterlimit:4;stroke-dasharray:none;stroke-opacity:1"
         d="m -103.7479,92.468691 4.56927,-7.480472"
         id="path1212" />
      <path
         style="fill:none;stroke:#000000;stroke-width:2.38125;stroke-linecap:butt;stroke-linejoin:miter;stroke-miterlimit:4;stroke-dasharray:none;stroke-opacity:1"
         d="m -100.48936,101.64676 7.885391,5.53357"
         id="path1214" />
      <path
         style="fill:none;stroke:#000000;stroke-width:2.38125;stroke-linecap:butt;stroke-linejoin:miter;stroke-miterlimit:4;stroke-dasharray:none;stroke-opacity:1"
         d="m -112.48242,121.5828 -16.77371,-2.81524 42.416988,23.59928 -51.594368,-16.96726 20.32153,15.27149 29.113428,2.46698"
         id="path1216" />
      <path
         style="fill:none;stroke:#000000;stroke-width:2.38125;stroke-linecap:butt;stroke-linejoin:miter;stroke-miterlimit:4;stroke-dasharray:none;stroke-opacity:1"
         d="m -118.72826,142.29005 8.75258,8.09745 18.046501,-5.55277"
         id="path1218" />
      <path
         style="fill:none;stroke:#000000;stroke-width:2.38125;stroke-linecap:butt;stroke-linejoin:miter;stroke-miterlimit:4;stroke-dasharray:none;stroke-opacity:1"
         d="m -101.80077,147.76536 8.63764,12.64798 9.100373,2.00516"
         id="path1220" />
      <path
         style="fill:none;stroke:#000000;stroke-width:2.38125;stroke-linecap:butt;stroke-linejoin:miter;stroke-miterlimit:4;stroke-dasharray:none;stroke-opacity:1"
         d="m -109.82144,150.85023 11.105542,18.97196 5.244283,-9.40885"
         id="path1222" />
      <path
         style="fill:none;stroke:#000000;stroke-width:2.38125;stroke-linecap:butt;stroke-linejoin:miter;stroke-miterlimit:4;stroke-dasharray:none;stroke-opacity:1"
         d="m -98.561653,170.43917 10.758204,18.12351 -5.359681,-28.30359"
         id="path1224" />
      <path
         style="fill:none;stroke:#000000;stroke-width:2.38125;stroke-linecap:butt;stroke-linejoin:miter;stroke-miterlimit:4;stroke-dasharray:none;stroke-opacity:1"
         d="m -98.715898,171.05614 -2.622372,24.5629 4.936027,8.90796 z"
         id="path1226" />
      <path
         style="fill:none;stroke:#000000;stroke-width:2.38125;stroke-linecap:butt;stroke-linejoin:miter;stroke-miterlimit:4;stroke-dasharray:none;stroke-opacity:1"
         d="m -115.83694,209.77128 12.80222,-13.88192 -10.79705,19.16574 c -0.66839,-2.05658 -1.95185,-8.29826 -2.00517,-4.20411"
         id="path1228" />
      <path
         style="fill:none;stroke:#000000;stroke-width:2.38125;stroke-linecap:butt;stroke-linejoin:miter;stroke-miterlimit:4;stroke-dasharray:none;stroke-opacity:1"
         d="m -132.49525,222.26501 16.31075,-12.60913"
         id="path1230" />
      <path
         style="fill:none;stroke:#000000;stroke-width:2.38125;stroke-linecap:butt;stroke-linejoin:miter;stroke-miterlimit:4;stroke-dasharray:none;stroke-opacity:1"
         d="m -161.41626,179.42414 -3.31658,5.74541 5.39921,2.39066 -1.81208,14.30581"
         id="path1232" />
      <path
         style="fill:none;stroke:#000000;stroke-width:2.38125;stroke-linecap:butt;stroke-linejoin:miter;stroke-miterlimit:4;stroke-dasharray:none;stroke-opacity:1"
         d="m -153.54938,196.96953 5.47553,16.65876 2.4679,-5.09095 11.76113,13.30379"
         id="path1234" />
      <path
         style="fill:none;stroke:#000000;stroke-width:2.38125;stroke-linecap:butt;stroke-linejoin:miter;stroke-miterlimit:4;stroke-dasharray:none;stroke-opacity:1"
         d="m -122.2198,159.57708 8.44897,6.05208"
         id="path1367" />
      <path
         style="fill:none;stroke:#000000;stroke-width:2.38125;stroke-linecap:butt;stroke-linejoin:miter;stroke-miterlimit:4;stroke-dasharray:none;stroke-opacity:1"
         d="m -137.31875,162.98333 5.90313,-0.0156"
         id="path1369" />
      <path
         style="fill:none;stroke:#000000;stroke-width:2.38125;stroke-linecap:butt;stroke-linejoin:miter;stroke-miterlimit:4;stroke-dasharray:none;stroke-opacity:1"
         d="m -123.97395,165.5802 -2.49688,9.0448"
         id="path1371" />
      <path
         style="fill:none;stroke:#000000;stroke-width:2.38125;stroke-linecap:butt;stroke-linejoin:miter;stroke-miterlimit:4;stroke-dasharray:none;stroke-opacity:1"
         d="m -131.28907,57.372399 15.13699,-5.910941 -30.55938,-6.746875 5.3073,7.960943"
         id="path1373" />
      <path
         style="fill:none;stroke:#000000;stroke-width:2.38125;stroke-linecap:butt;stroke-linejoin:miter;stroke-miterlimit:4;stroke-dasharray:none;stroke-opacity:1"
         d="m -168.28959,53.660418 20.8922,-9.680736 -16.51198,-1.646349 18.38854,-6.085417 -1.19063,5.291667 10.71563,-1.719792 -3.39844,-9.839581 6.57344,-7.887502 -2.77813,-7.540625 -2.77812,5.291667 -6.87917,16.271875 5.68854,-5.953125"
         id="path1375" />
      <path
         style="fill:none;stroke:#000000;stroke-width:2.38125;stroke-linecap:butt;stroke-linejoin:miter;stroke-miterlimit:4;stroke-dasharray:none;stroke-opacity:1"
         d="m -135.36666,37.80001 7.17604,-23.380219 -5.29167,3.439584"
         id="path1377" />
      <path
         style="fill:none;stroke:#000000;stroke-width:2.38125;stroke-linecap:butt;stroke-linejoin:miter;stroke-miterlimit:4;stroke-dasharray:none;stroke-opacity:1"
         d="m -138.77396,19.314583 -5.68854,-0.396875 -4.89479,-6.614583 -6.21771,7.672916 -6.21771,0.132292 17.72709,-1.058333"
         id="path1379" />
      <path
         style="fill:none;stroke:#000000;stroke-width:2.38125;stroke-linecap:butt;stroke-linejoin:miter;stroke-miterlimit:4;stroke-dasharray:none;stroke-opacity:1"
         d="m -174.17813,23.830203 4.54688,12.286459 13.79167,-15.479162 -8.79688,22.223962"
         id="path1381" />
      <path
         style="fill:none;stroke:#000000;stroke-width:2.38125;stroke-linecap:butt;stroke-linejoin:miter;stroke-miterlimit:4;stroke-dasharray:none;stroke-opacity:1"
         d="m -146.57916,41.804166 9.525,5.291667"
         id="path1383" />
    </g>
  </g>
</svg>
