<?xml version="1.0" encoding="UTF-8" standalone="no"?>
<!-- Created with Inkscape (http://www.inkscape.org/) -->

<svg
   width="103mm"
   height="137mm"
   viewBox="0 0 103 137"
   version="1.1"
   id="svg5"
   xmlns="http://www.w3.org/2000/svg"
   xmlns:svg="http://www.w3.org/2000/svg">
  <defs
     id="defs2" />
  <g
     id="layer1">
    <path
       fill="currentColor"
       d="M 77.415796,68.946426 H 26.615797 V 85.87976 H 77.415796 Z M 100.96371,28.994343 75.061004,3.0651772 C 73.870379,1.8745522 72.256421,1.2130932 70.563088,1.2130932 H 68.949129 V 35.07976 H 102.8158 v -1.613959 c 0,-1.666875 -0.66146,-3.280833 -1.85209,-4.471458 z M 60.482463,37.196426 V 1.2130932 H 7.5657964 c -3.518958,0 -6.35,2.831042 -6.35,6.3500004 V 130.32976 c 0,3.51895 2.831042,6.35 6.35,6.35 H 96.465796 c 3.518958,0 6.350004,-2.83105 6.350004,-6.35 V 43.546426 H 66.832463 c -3.4925,0 -6.35,-2.8575 -6.35,-6.35 z M 18.149129,20.263094 c 0,-1.169458 0.947209,-2.116667 2.116668,-2.116667 h 21.166666 c 1.169458,0 2.116666,0.947209 2.116666,2.116667 v 4.233333 c 0,1.169458 -0.947208,2.116666 -2.116666,2.116666 H 20.265797 c -1.169459,0 -2.116668,-0.947208 -2.116668,-2.116666 z m 0,16.933332 c 0,-1.169458 0.947209,-2.116666 2.116668,-2.116666 h 21.166666 c 1.169458,0 2.116666,0.947208 2.116666,2.116666 v 4.233334 c 0,1.169458 -0.947208,2.116666 -2.116666,2.116666 H 20.265797 c -1.169459,0 -2.116668,-0.947208 -2.116668,-2.116666 z m 67.733334,80.433334 c 0,1.16945 -0.947209,2.11666 -2.116667,2.11666 H 62.599129 c -1.169458,0 -2.116666,-0.94721 -2.116666,-2.11666 v -4.23334 c 0,-1.16946 0.947208,-2.11666 2.116666,-2.11666 h 21.166667 c 1.169458,0 2.116667,0.9472 2.116667,2.11666 z m 0,-52.916667 v 25.4 c 0,2.338917 -1.894417,4.233333 -4.233334,4.233333 H 22.382464 c -2.338918,0 -4.233335,-1.894416 -4.233335,-4.233333 v -25.4 c 0,-2.338917 1.894417,-4.233333 4.233335,-4.233333 h 59.266665 c 2.338917,0 4.233334,1.894416 4.233334,4.233333 z"
       id="path1204"
       style="stroke-width:0.264583;fill:#ffffff;fill-opacity:1" />
  </g>
</svg>
