<?xml version="1.0" encoding="UTF-8" standalone="no"?>
<!-- Created with Inkscape (http://www.inkscape.org/) -->

<svg
   width="130mm"
   height="129mm"
   viewBox="0 0 130 129"
   version="1.1"
   id="svg5"
   xmlns="http://www.w3.org/2000/svg"
   xmlns:svg="http://www.w3.org/2000/svg">
  <defs
     id="defs2" />
  <g
     id="layer1">
    <path
       d="M 97.024728,1.3667595 H 33.524729 c -17.534996,0 -31.7499998,14.2150035 -31.7499998,31.7499995 v 63.499999 c 0,17.534992 14.2150038,31.750002 31.7499998,31.750002 h 63.499999 c 17.534992,0 31.750002,-14.21501 31.750002,-31.750002 V 33.116759 c 0,-17.534996 -14.21501,-31.7499995 -31.750002,-31.7499995 z M 88.104566,19.629624 c 4.597135,0 8.325114,3.723481 8.325114,8.317971 0,4.594489 -3.727979,8.318235 -8.325114,8.318235 -4.596607,0 -8.323527,-3.723746 -8.323527,-8.318235 0,-4.594225 3.72692,-8.317971 8.323527,-8.317971 z M 107.60806,108.25842 H 68.714312 V 91.589675 h 11.1125 V 64.073009 h -27.78125 v 27.516666 h 11.1125 V 108.25842 H 24.264312 V 91.589675 h 11.1125 V 64.073009 h -11.1125 v -16.66875 h 11.1125 v -2.820723 c 0,-13.757804 11.213306,-24.960527 24.9809,-24.960527 h 8.3566 v 16.66875 h -8.3566 c -4.588934,0 -8.31215,3.705225 -8.31215,8.291777 v 2.820723 h 44.449999 v 44.185416 h 11.112499 z"
       id="path1524"
       style="stroke-width:0.264583;fill:#ffffff;fill-opacity:1" />
  </g>
</svg>
