<?xml version="1.0" encoding="UTF-8" standalone="no"?>
<!-- Created with Inkscape (http://www.inkscape.org/) -->

<svg
   width="134mm"
   height="131mm"
   viewBox="0 0 134 131"
   version="1.1"
   id="svg5"
   xmlns="http://www.w3.org/2000/svg"
   xmlns:svg="http://www.w3.org/2000/svg">
  <defs
     id="defs2" />
  <g
     id="layer1">
    <path
       fill="currentColor"
       d="m 45.270681,104.51426 c 0,0.52916 -0.608542,0.9525 -1.375833,0.9525 -0.873125,0.0794 -1.481667,-0.34396 -1.481667,-0.9525 0,-0.52917 0.608542,-0.9525 1.375833,-0.9525 0.79375,-0.0794 1.481667,0.34395 1.481667,0.9525 z m -8.228542,-1.19063 c -0.185208,0.52917 0.343959,1.13771 1.137709,1.29646 0.687916,0.26458 1.481666,0 1.640416,-0.52917 0.15875,-0.52916 -0.343958,-1.13771 -1.137708,-1.37583 -0.687917,-0.18521 -1.455208,0.0794 -1.640417,0.60854 z m 11.694584,-0.44979 c -0.767292,0.18521 -1.296459,0.68792 -1.217084,1.29646 0.07937,0.52916 0.767292,0.87312 1.561042,0.68791 0.767292,-0.1852 1.296458,-0.68791 1.217083,-1.21708 -0.07937,-0.50271 -0.79375,-0.84667 -1.561041,-0.76729 z M 66.146305,1.4855037 c -36.697707,0 -64.7699986,27.8606253 -64.7699986,64.5583353 0,29.34229 18.4679166,54.451251 44.8468746,63.288331 3.386667,0.60854 4.577292,-1.48166 4.577292,-3.20146 0,-1.64041 -0.07937,-10.68916 -0.07937,-16.24541 0,0 -18.520834,3.96875 -22.410209,-7.88459 0,0 -3.01625,-7.699371 -7.355416,-9.683751 0,0 -6.058959,-4.15396 0.423333,-4.07458 0,0 6.588125,0.52917 10.212917,6.82625 5.794375,10.212921 15.504583,7.276041 19.288125,5.529791 0.608541,-4.233331 2.328333,-7.170211 4.233333,-8.916461 -14.790208,-1.64041 -29.712708,-3.78354 -29.712708,-29.23646 0,-7.27604 2.010833,-10.92729 6.244166,-15.58395 -0.687916,-1.7198 -2.936875,-8.81063 0.687917,-17.96521 5.529792,-1.71979 18.25625,7.14375 18.25625,7.14375 5.291667,-1.48167 10.980208,-2.24896 16.615834,-2.24896 5.63562,0 11.32417,0.76729 16.61583,2.24896 0,0 12.72646,-8.89 18.256265,-7.14375 3.62479,9.18104 1.37583,16.24541 0.68791,17.96521 4.23334,4.68312 6.82625,8.33437 6.82625,15.58395 0,25.5323 -15.583965,27.56959 -30.374175,29.23646 2.43417,2.09021 4.49792,6.05896 4.49792,12.276671 0,8.91646 -0.0794,19.94958 -0.0794,22.11917 0,1.71979 1.21708,3.81 4.57729,3.20146 26.458335,-8.78417 44.397085,-33.893131 44.397085,-63.235421 0,-36.69771 -29.76562,-64.5583353 -66.463335,-64.5583353 z M 27.093806,92.740299 c -0.343958,0.26458 -0.264583,0.87312 0.185208,1.37583 0.423334,0.42333 1.031875,0.60854 1.375834,0.26458 0.343958,-0.26458 0.264583,-0.87312 -0.185209,-1.37583 -0.423333,-0.42333 -1.031875,-0.60854 -1.375833,-0.26458 z m -2.8575,-2.14313 c -0.185208,0.34396 0.07937,0.76729 0.608542,1.03188 0.423333,0.26458 0.9525,0.1852 1.137708,-0.18521 0.185208,-0.34396 -0.07937,-0.76729 -0.608542,-1.03188 -0.529166,-0.15875 -0.9525,-0.0794 -1.137708,0.18521 z m 8.5725,9.419171 c -0.423333,0.34396 -0.264583,1.13771 0.343958,1.64042 0.608542,0.60854 1.375834,0.68791 1.719792,0.26458 0.343958,-0.34396 0.185208,-1.13771 -0.343958,-1.64042 -0.582084,-0.608541 -1.375834,-0.687911 -1.719792,-0.26458 z m -3.01625,-3.889381 c -0.423333,0.26459 -0.423333,0.9525 0,1.56104 0.423333,0.60855 1.137708,0.87313 1.481667,0.60855 0.423333,-0.34396 0.423333,-1.03188 0,-1.64042 -0.370417,-0.60854 -1.058334,-0.87313 -1.481667,-0.52917 z"
       id="path832"
       style="stroke-width:0.264583;fill:#ffffff;fill-opacity:1" />
  </g>
</svg>
