<?xml version="1.0" encoding="UTF-8" standalone="no"?>
<!-- Created with Inkscape (http://www.inkscape.org/) -->

<svg
   width="299mm"
   height="227mm"
   viewBox="0 0 299 227"
   version="1.1"
   id="svg5"
   xmlns="http://www.w3.org/2000/svg"
   xmlns:svg="http://www.w3.org/2000/svg">
  <defs
     id="defs2" />
  <g
     id="layer1">
    <path
       d="M 144.54422,200.51538 C 80.40953,195.63473 3.92593,145.94077 7.81982,94.772697 11.71371,43.604629 85.78891,-4.028562 149.9236,0.852085 214.05829,5.732732 250.97641,101.35724 247.08252,152.5253 c -3.8939,51.16806 -38.40361,52.87074 -102.5383,47.99008 z"
       fill="#f2f2f2"
       id="path116"
       style="stroke-width:0.264583;fill:#f9bc94;fill-opacity:1" />
    <ellipse
       cx="149.92302"
       cy="200.5318"
       rx="133.87917"
       ry="8.2020836"
       fill="#3f3d56"
       id="ellipse118"
       style="stroke-width:0.264583" />
    <ellipse
       cx="149.92302"
       cy="200.39952"
       rx="114.03542"
       ry="5.4239583"
       opacity="0.1"
       id="ellipse120"
       style="stroke-width:0.264583" />
    <ellipse
       cx="56.525097"
       cy="221.83076"
       rx="56.142876"
       ry="4.8947916"
       fill="#3f3d56"
       id="ellipse122"
       style="stroke-width:0.264583" />
    <ellipse
       cx="56.525097"
       cy="221.75182"
       rx="47.821304"
       ry="3.2368779"
       opacity="0.1"
       id="ellipse124"
       style="stroke-width:0.264583" />
    <rect
       x="52.291775"
       y="43.369305"
       width="198.96666"
       height="156.10417"
       fill="#3f3d56"
       id="rect126"
       style="fill:#ff7f2a;fill-opacity:1;stroke-width:0.264583" />
    <path
       d="m 149.51147,64.70243 h -49.0849 a 0.59569085,0.59569085 0 1 1 0,-1.191379 h 49.0849 a 0.59569085,0.59569085 0 0 1 0,1.191379 z"
       fill="#f2f2f2"
       id="path128"
       style="stroke-width:0.264583" />
    <path
       d="m 203.24275,71.255027 h -77.20149 a 0.595691,0.595691 0 0 1 0,-1.191382 h 77.20149 a 0.595691,0.595691 0 1 1 0,1.191382 z"
       fill="#f2f2f2"
       id="path130"
       style="stroke-width:0.264583" />
    <path
       d="m 149.74975,77.807621 h -49.0849 a 0.595691,0.595691 0 1 1 0,-1.191382 h 49.0849 a 0.595691,0.595691 0 1 1 0,1.191382 z"
       fill="#f2f2f2"
       id="path132"
       style="stroke-width:0.264583" />
    <path
       d="m 203.24275,77.92676 h -49.08489 a 0.595691,0.595691 0 0 1 0,-1.191382 h 49.08489 a 0.595691,0.595691 0 1 1 0,1.191382 z"
       fill="#f2f2f2"
       id="path134"
       style="stroke-width:0.264583" />
    <path
       d="m 149.86888,84.360217 h -49.08489 a 0.59569085,0.59569085 0 0 1 0,-1.191381 h 49.08489 a 0.59569085,0.59569085 0 1 1 0,1.191381 z"
       fill="#f2f2f2"
       id="path136"
       style="stroke-width:0.264583" />
    <path
       d="m 149.98802,90.912807 h -49.08489 a 0.59569085,0.59569085 0 0 1 0,-1.19138 h 49.08489 a 0.59569085,0.59569085 0 1 1 0,1.19138 z"
       fill="#f2f2f2"
       id="path138"
       style="stroke-width:0.264583" />
    <path
       d="m 172.26685,64.821569 h -14.0583 a 0.595691,0.595691 0 0 1 0,-1.191382 h 14.0583 a 0.595691,0.595691 0 1 1 0,1.191382 z"
       fill="#f2f2f2"
       id="path140"
       style="stroke-width:0.264583" />
    <path
       d="m 172.26685,84.360217 h -14.0583 a 0.59569085,0.59569085 0 0 1 0,-1.191381 h 14.0583 a 0.59569085,0.59569085 0 1 1 0,1.191381 z"
       fill="#f2f2f2"
       id="path142"
       style="stroke-width:0.264583" />
    <path
       d="m 172.26685,90.793667 h -14.0583 a 0.59569085,0.59569085 0 1 1 0,-1.19137 h 14.0583 a 0.59569085,0.59569085 0 1 1 0,1.19137 z"
       fill="#f2f2f2"
       id="path144"
       style="stroke-width:0.264583" />
    <path
       d="m 195.85619,90.793667 h -14.0583 a 0.59569085,0.59569085 0 0 1 0,-1.19137 h 14.0583 a 0.59569085,0.59569085 0 1 1 0,1.19137 z"
       fill="#f2f2f2"
       id="path146"
       style="stroke-width:0.264583" />
    <path
       d="m 114.36573,71.255027 h -14.05829 a 0.595691,0.595691 0 0 1 0,-1.191382 h 14.05829 a 0.595691,0.595691 0 0 1 0,1.191382 z"
       fill="#f2f2f2"
       id="path148"
       style="stroke-width:0.264583" />
    <path
       d="m 149.57104,161.20429 h -49.0849 a 0.59569085,0.59569085 0 0 1 0,-1.19138 h 49.0849 a 0.59569085,0.59569085 0 0 1 0,1.19138 z"
       fill="#f2f2f2"
       id="path150"
       style="stroke-width:0.264583" />
    <path
       d="m 149.33276,174.30948 h -49.08489 a 0.59569085,0.59569085 0 1 1 0,-1.19138 h 49.08489 a 0.59569085,0.59569085 0 0 1 0,1.19138 z"
       fill="#f2f2f2"
       id="path152"
       style="stroke-width:0.264583" />
    <path
       d="m 149.4519,180.86207 h -49.08489 a 0.59569085,0.59569085 0 1 1 0,-1.19138 h 49.08489 a 0.59569085,0.59569085 0 1 1 0,1.19138 z"
       fill="#f2f2f2"
       id="path154"
       style="stroke-width:0.264583" />
    <path
       d="m 170.4202,174.42862 h -14.05829 a 0.59569085,0.59569085 0 0 1 0,-1.19138 h 14.05829 a 0.59569085,0.59569085 0 0 1 0,1.19138 z"
       fill="#f2f2f2"
       id="path156"
       style="stroke-width:0.264583" />
    <path
       d="m 170.4202,180.86207 h -14.05829 a 0.59569,0.59569 0 0 1 0,-1.19138 h 14.05829 a 0.59569,0.59569 0 1 1 0,1.19138 z"
       fill="#f2f2f2"
       id="path158"
       style="stroke-width:0.264583" />
    <path
       d="m 194.00955,174.42862 h -14.0583 a 0.59569085,0.59569085 0 1 1 0,-1.19138 h 14.0583 a 0.59569085,0.59569085 0 0 1 0,1.19138 z"
       fill="#f2f2f2"
       id="path160"
       style="stroke-width:0.264583" />
    <path
       d="m 203.30232,167.75689 h -77.20149 a 0.595695,0.595695 0 0 1 0,-1.19139 h 77.20149 a 0.595695,0.595695 0 0 1 0,1.19139 z"
       fill="#f2f2f2"
       id="path162"
       style="stroke-width:0.264583" />
    <path
       d="m 114.4253,167.75689 h -14.05829 a 0.595695,0.595695 0 0 1 0,-1.19139 h 14.05829 a 0.595695,0.595695 0 0 1 0,1.19139 z"
       fill="#f2f2f2"
       id="path164"
       style="stroke-width:0.264583" />
    <path
       d="m 203.30232,187.53381 h -77.20149 a 0.59569085,0.59569085 0 1 1 0,-1.19138 h 77.20149 a 0.59569,0.59569 0 0 1 0,1.19138 z"
       fill="#f2f2f2"
       id="path166"
       style="stroke-width:0.264583" />
    <path
       d="m 114.4253,187.53381 h -14.05829 a 0.59569085,0.59569085 0 1 1 0,-1.19138 h 14.05829 a 0.59569085,0.59569085 0 1 1 0,1.19138 z"
       fill="#f2f2f2"
       id="path168"
       style="stroke-width:0.264583" />
    <polygon
       points="519.06,401.13 447.014,472.275 519.06,543.42 535.27,527.21 480.786,472.725 535.72,417.79 "
       fill="#454545"
       id="polygon170"
       transform="matrix(0.26458333,0,0,0.26458333,0.38222,0.506804)"
       style="fill:#333333" />
    <polygon
       points="625.327,401.13 697.373,472.275 625.327,543.42 609.117,527.21 663.602,472.725 608.667,417.79 "
       fill="#454545"
       id="polygon172"
       transform="matrix(0.26458333,0,0,0.26458333,0.38222,0.506804)"
       style="fill:#333333" />
    <circle
       cx="57.583431"
       cy="47.338055"
       r="2.3812499"
       fill="#454545"
       id="circle174"
       style="fill:#333333;stroke-width:0.264583" />
    <circle
       cx="63.933422"
       cy="47.338055"
       r="2.3812499"
       fill="#454545"
       id="circle176"
       style="fill:#333333;stroke-width:0.264583" />
    <circle
       cx="70.283432"
       cy="47.338055"
       r="2.3812499"
       fill="#454545"
       id="circle178"
       style="fill:#333333;stroke-width:0.264583" />
    <rect
       x="52.291775"
       y="51.306805"
       width="198.96666"
       height="0.79374999"
       opacity="0.1"
       id="rect180"
       style="stroke-width:0.264583" />
    <path
       d="m 298.35426,161.2289 c 0,16.87276 -10.03059,22.7641 -22.40396,22.7641 -12.37335,0 -22.40395,-5.89134 -22.40395,-22.7641 0,-16.87277 22.40395,-38.3376 22.40395,-38.3376 0,0 22.40396,21.46483 22.40396,38.3376 z"
       fill="#f2f2f2"
       id="path182"
       style="stroke-width:0.264583;fill:#f9bc94;fill-opacity:1" />
    <polygon
       points="1040.63,548.484 1067.265,510.453 1040.74,541.697 1041.178,462.556 1038.425,567.325 1038.651,563.003 1011.571,521.552 1038.217,571.3 1035.694,619.503 1035.619,618.223 1004.4,574.602 1035.524,622.743 1035.209,628.771 1035.152,628.862 1035.178,629.357 1028.776,751.653 1037.329,751.653 1038.355,688.485 1069.404,640.461 1038.433,683.736 1039.3,630.365 1075.391,564.338 1039.436,621.993 1039.826,597.995 1064.699,550.226 1039.929,591.645 "
       fill="#3f3d56"
       id="polygon184"
       transform="matrix(0.26458333,0,0,0.26458333,0.38222,0.506804)" />
    <path
       d="m 32.82585,199.23308 a 11.410336,11.410336 0 0 1 -2.16378,0.92671 c -1.34377,0.36708 -2.78002,0.23241 -4.13733,0.54577 -0.55572,0.1283 -1.16054,0.39665 -1.33727,0.93892 -0.12963,0.39775 0.0114,0.82726 0.14644,1.22321 1.4998,4.39735 2.40378,9.06628 4.79562,13.04939 a 19.748698,19.748698 0 0 0 3.70223,4.49465 c 0.54375,0.49008 1.15995,0.96951 1.88791,1.0464 a 1.917618,1.917618 0 0 0 1.95013,-2.69399 c -0.21446,-0.47654 -0.61311,-0.84565 -0.87022,-1.30061 a 4.9627895,4.9627895 0 0 1 -0.4814,-1.84962 c -0.23631,-1.88074 -0.46395,-3.84642 0.1877,-5.62641 0.43706,-1.19385 1.2388,-2.21164 1.9067,-3.2934 0.66789,-1.08177 1.22282,-2.3209 1.0742,-3.58352 -0.10142,-0.86164 -0.52173,-1.65016 -0.96573,-2.39554 -0.44488,-0.74684 -1.32416,-2.75388 -2.21796,-3.00311 -0.92781,-0.25871 -2.6681,1.10646 -3.47724,1.52115 z"
       fill="#2f2e41"
       id="path186"
       style="stroke-width:0.264583" />
    <path
       d="m 57.28261,214.42245 a 3.7091461,3.7091461 0 0 1 -0.17548,1.25553 c -0.27981,0.73885 -0.97393,1.24515 -1.33252,1.94914 -0.49874,0.97912 -0.27269,2.16263 0.0577,3.2106 0.20715,0.657 0.47887,1.34064 1.03517,1.74697 a 3.4112147,3.4112147 0 0 0 1.57528,0.50461 c 4.7721,0.66045 9.61971,0.28151 14.4353,0.41989 0.8777,0.0252 1.80696,0.0559 2.57313,-0.37298 0.76617,-0.42893 1.23984,-1.50728 0.71874,-2.214 -0.46792,-0.63462 -1.39313,-0.62871 -2.18072,-0.66611 a 8.9725499,8.9725499 0 0 1 -5.53323,-2.27933 3.9983092,3.9983092 0 0 1 -0.77611,-0.89338 5.4908767,5.4908767 0 0 1 -0.40597,-0.93069 41.486338,41.486338 0 0 0 -2.40335,-5.32304 c -0.25897,-0.4802 -0.55219,-0.98028 -1.03346,-1.23728 a 2.731217,2.731217 0 0 0 -1.12166,-0.24488 c -1.20023,-0.0778 -4.30826,-0.48626 -5.23637,0.44705 -0.85754,0.86237 -0.17748,3.53259 -0.19649,4.6279 z"
       fill="#2f2e41"
       id="path188"
       style="stroke-width:0.264583" />
    <circle
       cx="64.668243"
       cy="100.18073"
       r="7.6662917"
       fill="#fbbebe"
       id="circle190"
       style="stroke-width:0.264583" />
    <path
       d="m 57.74541,106.51102 c -0.45599,1.22076 -1.22944,2.36725 -2.35489,3.02417 l 10.60307,2.16288 a 11.232406,11.232406 0 0 1 -0.14865,-4.72784 2.72524,2.72524 0 0 0 0.0634,-1.16655 c -0.19938,-0.76926 -1.06534,-1.13954 -1.84015,-1.31616 -1.93518,-0.44115 -3.64652,-0.67771 -5.44484,-1.5324 -0.54968,0.94101 -0.47272,2.47095 -0.87798,3.5559 z"
       fill="#fbbebe"
       id="path192"
       style="stroke-width:0.264583" />
    <path
       d="m 55.30195,106.66474 a 8.2916315,8.2916315 0 0 1 7.22659,0.18883 c 1.35937,0.71636 2.48494,1.79766 3.5908,2.8645 1.01934,0.98338 2.10673,2.10936 2.17907,3.52388 0.0351,0.68525 -0.17883,1.35542 -0.28682,2.03301 a 6.8171641,6.8171641 0 0 0 3.64596,7.00338 c 0.84233,1.40319 1.01617,3.10322 1.02909,4.73977 0.049,6.20075 -1.90742,12.478 -0.51076,18.51961 0.32792,1.41848 0.83651,2.79239 1.1198,4.22045 0.36693,1.8497 0.34881,3.75168 0.54079,5.62762 a 25.205862,25.205862 0 0 0 1.35287,5.95193 c -0.46144,0.73387 -1.42176,1.01528 -2.28661,0.95584 -0.86484,-0.0594 -1.67354,-0.43474 -2.44525,-0.82964 -3.73678,-1.91222 -7.15941,-4.4337 -11.02969,-6.05884 -2.56054,-1.07518 -5.28834,-1.7449 -7.77237,-2.98668 -2.48402,-1.24178 -4.79421,-3.21255 -5.55373,-5.8838 -0.32841,-1.15503 -0.34863,-2.37201 -0.36655,-3.57269 -0.0755,-5.05718 -0.14565,-10.16957 0.95514,-15.10607 0.97076,-4.35336 2.84201,-8.51794 3.25024,-12.9595 0.13289,-1.44574 0.13572,-2.99343 0.94349,-4.19981 1.14173,-1.70515 3.60693,-2.14674 4.41794,-4.03179 z"
       fill="#2f2e41"
       id="path194"
       style="stroke-width:0.264583" />
    <path
       d="m 60.30811,100.28894 c 0.45174,-0.589183 1.32298,-0.669533 2.04467,-0.495253 0.72168,0.17428 1.38711,0.546233 2.11597,0.687543 a 1.2370435,1.2370435 0 0 0 0.9904,-0.13911 1.4404684,1.4404684 0 0 0 0.42743,-0.944633 18.034841,18.034841 0 0 0 0.1775,-4.59859 1.3616834,1.3616834 0 0 1 0.042,-0.6449 c 0.18045,-0.43482 0.73097,-0.53831 1.1806,-0.6778 a 3.5231228,3.5231228 0 0 0 2.38466,-3.60709 1.4342718,1.4342718 0 0 0 -0.43834,-0.98968 c -0.31094,-0.25338 -0.74616,-0.26895 -1.14726,-0.27217 q -3.09114,-0.0248 -6.18241,0.002 c -0.76274,0.007 -1.56377,0.0253 -2.22498,0.40555 -0.48887,0.28115 -0.85241,0.73369 -1.29129,1.08784 -1.14464,0.92369 -2.69289,1.11164 -4.08547,1.58504 a 4.0502998,4.0502998 0 0 0 -1.79058,1.06777 c -0.46311,0.52907 -0.68577,1.3158 -0.39492,1.95595 a 6.9458548,6.9458548 0 0 0 0.49923,0.76833 c 0.82144,1.31343 0.27458,3.01706 0.39724,4.561343 0.15318,1.92838 3.00698,5.0566 4.9421,5.51293 3.12412,0.7367 1.31924,-3.99872 2.35344,-5.26456 z"
       fill="#2f2e41"
       id="path196"
       style="stroke-width:0.264583" />
    <path
       d="m 55.98024,184.83741 c 0.19715,1.40803 0.44998,2.82091 0.38239,4.24107 -0.0944,1.98269 -0.80939,3.89303 -0.94157,5.87356 -0.0987,1.47924 0.12961,2.97448 -0.0758,4.44272 -0.13154,0.94013 -0.43811,1.84639 -0.6279,2.77651 a 11.48157,11.48157 0 0 0 1.84496,8.80149 1.4414182,1.4414182 0 0 0 0.53535,0.51885 1.5117498,1.5117498 0 0 0 0.66355,0.0878 47.611029,47.611029 0 0 0 6.65962,-0.60523 0.63878883,0.63878883 0 0 0 0.42763,-0.18867 0.59945851,0.59945851 0 0 0 0.0929,-0.25242 c 0.40847,-2.09973 -0.52301,-4.2051 -0.75988,-6.33104 -0.25292,-2.27005 0.29176,-4.54484 0.83241,-6.76402 a 30.042821,30.042821 0 0 1 0.91741,-3.23525 c 0.26133,-0.71367 0.57694,-1.40781 0.80344,-2.13329 a 16.261384,16.261384 0 0 0 0.58261,-3.49319 q 0.2359,-2.79804 0.24997,-5.60888 a 23.536748,23.536748 0 0 0 -0.44056,-5.29432 c -0.49689,-2.20609 -1.51443,-4.25467 -2.52305,-6.27863 a 3.9762959,3.9762959 0 0 0 -1.48638,0.70645 33.173434,33.173434 0 0 1 -4.06136,2.24382 c -0.94365,0.43835 -2.78393,0.74968 -3.38284,1.66311 -0.59062,0.90081 -0.20955,2.73866 -0.16442,3.73214 q 0.11616,2.55788 0.47157,5.09744 z"
       fill="#2f2e41"
       id="path198"
       style="stroke-width:0.264583" />
    <path
       d="m 55.98024,184.83741 c 0.19715,1.40803 0.44998,2.82091 0.38239,4.24107 -0.0944,1.98269 -0.80939,3.89303 -0.94157,5.87356 -0.0987,1.47924 0.12961,2.97448 -0.0758,4.44272 -0.13154,0.94013 -0.43811,1.84639 -0.6279,2.77651 a 11.48157,11.48157 0 0 0 1.84496,8.80149 1.4414182,1.4414182 0 0 0 0.53535,0.51885 1.5117498,1.5117498 0 0 0 0.66355,0.0878 47.611029,47.611029 0 0 0 6.65962,-0.60523 0.63878883,0.63878883 0 0 0 0.42763,-0.18867 0.59945851,0.59945851 0 0 0 0.0929,-0.25242 c 0.40847,-2.09973 -0.52301,-4.2051 -0.75988,-6.33104 -0.25292,-2.27005 0.29176,-4.54484 0.83241,-6.76402 a 30.042821,30.042821 0 0 1 0.91741,-3.23525 c 0.26133,-0.71367 0.57694,-1.40781 0.80344,-2.13329 a 16.261384,16.261384 0 0 0 0.58261,-3.49319 q 0.2359,-2.79804 0.24997,-5.60888 a 23.536748,23.536748 0 0 0 -0.44056,-5.29432 c -0.49689,-2.20609 -1.51443,-4.25467 -2.52305,-6.27863 a 3.9762959,3.9762959 0 0 0 -1.48638,0.70645 33.173434,33.173434 0 0 1 -4.06136,2.24382 c -0.94365,0.43835 -2.78393,0.74968 -3.38284,1.66311 -0.59062,0.90081 -0.20955,2.73866 -0.16442,3.73214 q 0.11616,2.55788 0.47157,5.09744 z"
       opacity="0.1"
       id="path200"
       style="stroke-width:0.264583" />
    <path
       d="m 45.61569,154.76365 c -1.01805,2.74093 0.47841,5.70276 1.77853,8.3217 3.20304,6.45217 5.42731,13.33697 7.6397,20.19228 0.16572,0.5135 0.33131,1.07372 0.14656,1.58069 a 2.0704572,2.0704572 0 0 1 -0.74659,0.88556 c -1.52545,1.15865 -3.46783,1.57129 -5.28498,2.17747 a 23.861061,23.861061 0 0 0 -5.01191,2.34949 c -1.31677,0.81594 -2.55029,1.75785 -3.78139,2.69809 l -3.91901,2.99309 a 2.6201687,2.6201687 0 0 0 -0.65505,0.63409 c -0.37799,0.59302 -0.22316,1.3672 -0.035,2.04478 a 34.774748,34.774748 0 0 0 1.91879,5.23663 1.8285354,1.8285354 0 0 0 0.69585,0.91193 c 0.6117,0.32872 1.35988,-0.10716 1.82699,-0.62102 0.46711,-0.51385 0.87112,-1.1533 1.52958,-1.3739 0.65768,-0.22034 1.38155,0.0465 2.06842,-0.0499 1.1109,-0.15595 1.84844,-1.17931 2.6492,-1.96492 3.27166,-3.20975 8.73392,-2.97689 12.33288,-5.81481 a 15.670691,15.670691 0 0 1 1.64862,-1.28787 c 0.60842,-0.35964 1.29839,-0.55703 1.92965,-0.8749 1.91998,-0.96682 3.12701,-2.9656 3.7736,-5.01571 0.64659,-2.05011 0.83099,-4.21425 1.29563,-6.3131 0.2402,-1.08503 0.55639,-2.15839 0.66324,-3.26455 a 17.487349,17.487349 0 0 0 -0.067,-3.08665 l -1.29861,-16.0643 c -0.10572,-1.30792 -0.21163,-2.61736 -0.41691,-3.91339 -3.85674,0.13788 -7.71071,0.29304 -11.56964,0.33867 -3.07064,0.0363 -6.19771,0.25095 -9.11122,-0.71942 z"
       fill="#2f2e41"
       id="path202"
       style="stroke-width:0.264583" />
    <path
       d="m 44.19788,158.52153 c 0.52318,0.8414 1.79656,0.82402 2.67342,0.36272 0.87686,-0.4613 1.55808,-1.23629 2.437,-1.69364 1.18107,-0.61458 2.57866,-0.59147 3.90953,-0.55388 2.10703,0.0595 4.23992,0.12285 6.26716,0.70027 2.09679,0.59724 4.13801,1.74713 6.30608,1.51773 0.37727,-0.0399 0.7898,-0.14811 0.99512,-0.46712 a 1.466977,1.466977 0 0 0 0.16395,-0.75031 l 0.0709,-1.89416 a 1.7102852,1.7102852 0 0 0 -0.15081,-0.9592 1.6090953,1.6090953 0 0 0 -0.71858,-0.55018 c -3.08593,-1.49387 -6.60521,-1.77203 -10.0317,-1.88941 q -2.61265,-0.0895 -5.2275,-0.0736 c -1.47929,0.009 -3.25517,-0.20501 -4.69338,0.19025 -1.93016,0.53049 -2.98041,4.48571 -2.00118,6.06056 z"
       fill="#2f2e41"
       id="path204"
       style="stroke-width:0.264583" />
    <path
       d="m 63.57511,108.91336 c -4.04341,-0.0358 -7.70758,-2.70471 -11.75063,-2.76972 a 3.0465368,3.0465368 0 0 0 -1.4268,0.24618 c -0.56338,0.2838 -0.93378,0.83256 -1.36175,1.29601 -1.19546,1.29456 -2.92661,1.98578 -4.15475,3.24937 -1.15156,1.18479 -1.79199,2.94999 -1.33735,4.53842 0.45463,1.58842 2.17051,2.80683 3.77798,2.42496 a 9.7368809,9.7368809 0 0 1 3.79329,-5.15394 19.28473,19.28473 0 0 1 2.96474,-1.5563 c 1.81714,-0.8233 3.8491,-1.66233 5.74619,-1.04519 a 8.1062855,8.1062855 0 0 1 1.96034,1.06901 l 3.1628,2.1246 c -0.36853,-1.45362 -0.69992,-3.08386 -1.37406,-4.4234 z"
       fill="#454545"
       id="path206"
       style="stroke-width:0.264583" />
    <path
       d="m 46.85607,116.49324 c -0.53692,0.66982 0.23654,1.64033 0.11815,2.49057 -0.0787,0.56492 -0.54353,0.99626 -0.73713,1.53277 -0.20053,0.55573 -0.0942,1.17131 -0.17024,1.75718 a 7.5376245,7.5376245 0 0 1 -0.33737,1.25138 22.482841,22.482841 0 0 0 -0.71077,3.71098 l -0.70774,5.2852 a 20.02396,20.02396 0 0 0 -0.22383,2.40186 7.1721767,7.1721767 0 0 1 -0.11962,1.79566 c -0.15672,0.57759 -0.50373,1.08288 -0.73718,1.63393 -0.23344,0.55105 -0.34164,1.21761 -0.0263,1.72623 -1.05606,0.87963 -1.37008,2.60714 -0.63164,3.76635 a 2.0900575,2.0900575 0 0 1 0.32547,0.59933 1.53983,1.53983 0 0 1 -0.14334,0.88379 l -0.71562,1.90676 c -0.18317,0.48808 -0.24111,1.23115 0.26816,1.34256 a 4.4995491,4.4995491 0 0 0 -0.96608,1.5258 1.8166741,1.8166741 0 0 0 0.2573,1.72127 2.1930757,2.1930757 0 0 1 0.44831,0.54406 1.4479746,1.4479746 0 0 1 -0.0518,0.85809 3.1500577,3.1500577 0 0 0 0.38973,2.46947 2.2149488,2.2149488 0 0 0 2.22739,0.95476 c 1.43151,-0.32288 2.71787,-0.83257 4.16125,-0.56772 3.10779,0.57025 6.22559,1.14297 9.23559,2.10396 3.43535,1.09681 6.76171,2.70522 10.35205,3.04283 a 1.0048425,1.0048425 0 0 0 0.69231,-0.10768 1.039995,1.039995 0 0 0 0.32015,-0.65819 q 0.55483,-2.60149 1.10967,-5.20298 a 53.541948,53.541948 0 0 0 1.02004,-5.82815 c 0.12632,-1.26504 0.16232,-2.53715 0.19825,-3.80797 l 0.28597,-10.1153 a 10.106371,10.106371 0 0 0 -0.58208,-4.39728 l -1.64504,-5.25153 c -0.93878,-2.99689 -3.09238,-5.65447 -3.85915,-8.69992 -0.48529,-1.92749 -0.84379,-3.99598 -2.14521,-5.4983 -1.85536,-2.14179 -5.06537,-2.47492 -7.87499,-2.10668 -1.26928,0.16636 -2.54942,0.45345 -3.64734,1.11172 -1.26954,0.76116 -2.20479,1.96019 -3.10961,3.13169 -0.74569,0.96548 -1.50469,1.74164 -2.2677,2.6935 z"
       fill="#454545"
       id="path208"
       style="stroke-width:0.264583" />
    <path
       d="m 53.41639,146.24552 c 0.23149,0.99815 0.71764,1.91851 1.01521,2.89899 0.49857,1.64274 0.45625,3.41197 0.95385,5.055 0.20885,0.68963 0.51145,1.35176 0.66136,2.05655 0.34949,1.64321 -0.1608,3.34317 -0.79468,4.89896 -0.63388,1.55579 -1.40586,3.0898 -1.61163,4.75711 -0.14493,1.17435 0.0633,2.50034 0.96842,3.26244 0.93972,0.79121 2.30534,0.73763 3.52926,0.63236 a 3.7083576,3.7083576 0 0 0 1.28091,-0.26672 c 0.936,-0.44281 1.33023,-1.55042 1.54903,-2.56249 0.73323,-3.39173 0.52376,-6.90727 0.31068,-10.3708 l -0.55725,-9.0578 c -0.10728,-1.74381 -0.22222,-3.52374 -0.75957,-5.19812 -0.19547,-0.60907 -0.53616,-1.83986 -1.09251,-2.22877 -0.55102,-0.38519 -2.12459,-0.40235 -2.80684,-0.43438 -3.20088,-0.15032 -3.16499,4.31731 -2.64624,6.55767 z"
       fill="#fbbebe"
       id="path210"
       style="stroke-width:0.264583" />
    <path
       d="m 56.96287,112.80219 c -0.65371,-0.34232 -1.47732,-0.19473 -2.1092,0.18639 a 6.5002092,6.5002092 0 0 0 -1.58007,1.5341 c -1.41258,1.72426 -2.90796,3.70275 -2.69845,5.92189 0.0786,0.83204 0.39714,1.61948 0.61314,2.42683 0.94706,3.54003 -0.10021,7.28401 0.0199,10.94657 0.0694,2.11633 0.52994,4.19798 0.98856,6.26518 0.0936,0.42189 0.2435,0.91026 0.65162,1.05232 0.30659,0.10672 0.63774,-0.0305 0.94117,-0.14585 a 7.5064937,7.5064937 0 0 1 6.86941,0.8658 c 0.75803,-0.40446 0.47399,-1.68344 0.30404,-2.52565 -0.50493,-2.50234 0.1805,-5.08381 1.01293,-7.49705 0.83243,-2.41324 1.82842,-4.82344 1.96634,-7.37249 0.15627,-2.88821 -0.80136,-5.70725 -1.74621,-8.441 -0.20624,-0.59671 -0.43163,-1.22243 -0.9098,-1.63468 a 3.6155921,3.6155921 0 0 0 -1.37661,-0.62892 c -1.0036,-0.29663 -2.01971,-0.46795 -2.94682,-0.95344 z"
       fill="#2f2e41"
       id="path212"
       style="stroke-width:0.264583" />
  </g>
</svg>
