<?xml version="1.0" encoding="UTF-8" standalone="no"?>
<!-- Created with Inkscape (http://www.inkscape.org/) -->

<svg
   width="121mm"
   height="120mm"
   viewBox="0 0 121 120"
   version="1.1"
   id="svg5"
   xmlns="http://www.w3.org/2000/svg"
   xmlns:svg="http://www.w3.org/2000/svg">
  <defs
     id="defs2" />
  <g
     id="layer1">
    <path
       fill="currentColor"
       d="M 111.58709,1.5204213 H 9.96063 c -4.65667,0 -8.44021,3.8364583 -8.44021,8.5460417 V 111.50771 c 0,4.70958 3.78354,8.54604 8.44021,8.54604 h 101.62646 c 4.65666,0 8.46666,-3.83646 8.46666,-8.54604 V 10.066463 c 0,-4.7095834 -3.81,-8.5460417 -8.46666,-8.5460417 z M 37.345006,103.12042 H 19.776673 V 46.552505 H 37.371465 V 103.12042 Z M 28.56084,38.826672 c -5.635625,0 -10.186459,-4.577292 -10.186459,-10.186459 0,-5.609166 4.550834,-10.186458 10.186459,-10.186458 5.609166,0 10.186458,4.577292 10.186458,10.186458 0,5.635625 -4.550833,10.186459 -10.186458,10.186459 z m 74.63895,64.293748 H 85.631465 V 75.603755 c 0,-6.561667 -0.132292,-15.001875 -9.128125,-15.001875 -9.154584,0 -10.556875,7.14375 -10.556875,14.525625 V 103.12042 H 48.378131 V 46.552505 H 65.23209 v 7.725833 h 0.238125 c 2.354791,-4.445 8.09625,-9.128125 16.642291,-9.128125 17.78,0 21.087284,11.721042 21.087284,26.961042 z"
       id="path1654"
       style="stroke-width:0.264583;fill:#ffffff;fill-opacity:1" />
  </g>
</svg>
