<?xml version="1.0" encoding="UTF-8" standalone="no"?>
<!-- Created with Inkscape (http://www.inkscape.org/) -->

<svg
   width="115mm"
   height="121mm"
   viewBox="0 0 115 121"
   version="1.1"
   id="svg5"
   xmlns="http://www.w3.org/2000/svg"
   xmlns:svg="http://www.w3.org/2000/svg">
  <defs
     id="defs2" />
  <g
     id="layer1">
    <path
       fill="currentColor"
       d="m 86.138926,57.892074 a 9.5646875,9.5646875 0 0 1 2.460625,0 c 0.439208,-1.013354 0.515937,-2.759604 0.119062,-4.659312 -0.590021,-2.823104 -1.389062,-4.534959 -3.037416,-4.267729 -1.648355,0.267229 -1.711855,2.312458 -1.121834,5.138208 0.333375,1.5875 0.923396,2.947458 1.5875,3.788833 z m -14.171084,2.243667 c 1.182688,0.529167 1.905,0.862542 2.19075,0.563562 0.500063,-0.513291 -0.92075,-2.484437 -3.20675,-3.463395 a 8.3185,8.3185 0 0 0 -8.098895,0.973666 c -0.79375,0.576792 -1.53723,1.381125 -1.431396,1.867959 0.224896,0.989541 2.645833,-0.717021 5.979583,-0.92075 1.852083,-0.116417 3.386667,0.46302 4.566708,0.981604 z m -2.38125,1.357312 c -2.39977,0.375709 -3.96875,1.72773 -3.563937,2.672292 0.238125,0.08996 0.309562,0.214313 1.378479,-0.214312 a 9.7895833,9.7895833 0 0 1 4.953,-0.515938 c 0.772583,0.08996 1.140354,0.137583 1.307042,-0.129646 0.386291,-0.587375 -1.510771,-2.116666 -4.071938,-1.812396 z m 14.33248,4.524375 c 0.894291,-1.817687 -2.883959,-3.685645 -3.783542,-1.852083 -0.899583,1.833563 2.88925,3.672417 3.788833,1.844146 z m 4.143375,-5.41602 c -2.026709,-0.0344 -2.103438,4.180416 -0.06879,4.214812 2.034646,0.0344 2.111375,-4.183062 0.07408,-4.22275 z M 30.174259,81.477033 c -0.34925,0.08202 -1.5875,0.383645 -2.241021,-0.621771 -1.375833,-2.116667 2.939521,-5.392209 0.79375,-9.464146 -2.407708,-4.622271 -7.36071,-3.582458 -9.27364,-1.465792 -2.30453,2.54 -2.30717,6.228292 -1.32292,6.371167 1.12977,0.150812 1.0795,-1.711854 1.95262,-3.077104 a 3.3946042,3.3946042 0 0 1 4.722815,-0.98425 c 3.066521,2.008187 0.36248,4.699 0.60325,7.572375 0.367771,4.41325 4.873625,4.331229 5.709709,2.38125 a 0.55033333,0.55033333 0 0 0 -0.05292,-0.616479 c 0.0079,0.235479 0.179917,-0.343959 -0.886354,-0.103188 z m 79.300921,-4.516438 c -0.88636,-3.103562 -0.67998,-2.439458 -1.79388,-5.42925 0.64823,-0.971021 4.04548,-6.35 -0.81227,-11.443229 -2.75167,-2.88925 -8.969375,-4.376208 -10.874375,-4.905375 C 95.59778,52.169137 97.224967,39.651699 90.300822,33.222324 95.801509,27.520554 99.23315,21.239345 99.22522,15.852429 99.20934,5.4913447 86.48553,2.3586781 70.803676,8.8489077 L 67.483155,10.259137 C 67.467275,10.245908 61.474468,4.3668657 61.384509,4.2874907 43.511905,-11.301759 -12.386612,50.825053 5.485988,65.916887 l 3.90525,3.309937 a 19.179646,19.179646 0 0 0 -1.08479,8.863542 c 0.889,8.837083 9.525,15.986125 17.867311,15.975545 15.274396,35.205449 70.881875,35.263659 85.272561,0.79375 0.46038,-1.18269 2.41036,-6.511399 2.41036,-11.213045 0,-4.701646 -2.66965,-6.686021 -4.37357,-6.686021 z M 25.866843,89.702928 C 19.829048,89.541533 13.309718,84.106991 12.661488,77.661741 c -1.63248,-16.221604 19.647959,-19.915188 22.225,-3.262313 1.201209,7.84225 -1.235604,15.47548 -9.027583,15.295563 z M 20.969408,59.487512 c -4.01109,0.780521 -7.54592,3.053291 -9.71021,6.204479 -1.29117,-1.076854 -3.70417,-3.175 -4.12486,-3.96875 -3.44222,-6.574896 3.76767,-19.314583 8.81063,-26.513896 12.46452,-17.787937 31.982833,-31.2499373 41.023645,-28.8078333 1.468438,0.415396 6.334125,6.0563123 6.334125,6.0563123 0,0 -9.035521,5.011209 -17.409583,11.998854 C 34.60603,33.148241 26.078509,45.779449 20.969408,59.487512 Z m 63.203664,26.762604 c 0,0 -9.456209,1.402292 -18.391188,-1.870604 1.643063,-5.334 7.14375,1.613958 25.505833,-3.653896 4.04548,-1.158875 9.358313,-3.439583 13.493753,-6.707188 a 27.212396,27.212396 0 0 1 1.88383,6.424084 c 0.96838,-0.174625 3.77031,-0.137584 3.02683,4.788958 -0.87048,5.257271 -3.10356,9.525001 -6.86064,13.451421 a 28.273375,28.273375 0 0 1 -8.241773,6.167429 35.044062,35.044062 0 0 1 -5.381625,2.27013 c -14.157854,4.62491 -28.654375,-0.46038 -33.3375,-11.377089 a 17.549812,17.549812 0 0 1 -0.93927,-2.577037 c -1.992313,-7.196666 -0.301625,-15.830021 4.98475,-21.264562 0.325437,-0.346604 0.656166,-0.754063 0.656166,-1.267354 a 2.2357292,2.2357292 0 0 0 -0.508,-1.201209 c -1.852083,-2.680229 -8.252354,-7.249583 -6.966479,-16.094604 0.926042,-6.35 6.479646,-10.824104 11.660188,-10.559521 l 1.322916,0.07673 c 2.243667,0.132292 4.204229,0.420688 6.053667,0.497417 3.092979,0.132292 5.87375,-0.314854 9.165167,-3.058583 1.11125,-0.926042 2.002895,-1.730375 3.508375,-1.987021 a 4.6169792,4.6169792 0 0 1 3.598333,0.592667 c 2.645833,1.756833 3.01625,6.013979 3.153833,9.125479 0.07673,1.778 0.291042,6.085416 0.365125,7.310437 0.166688,2.823104 0.907521,3.219979 2.410354,3.704167 0.844021,0.277812 1.627188,0.484187 2.780771,0.809625 3.495142,0.981604 5.556252,1.979083 6.879162,3.257021 a 4.333875,4.333875 0 0 1 1.25413,2.457979 c 0.41275,3.008312 -2.33363,6.720417 -9.607021,10.0965 -12.358687,5.736167 -24.786167,3.823229 -26.585333,3.6195 -5.331354,-0.717021 -8.368771,6.170083 -5.172604,10.887604 5.990166,8.839725 32.385,5.291665 40.049978,-5.648854 0.18256,-0.264583 0.0318,-0.420688 -0.19315,-0.264583 -11.051641,7.561791 -25.680453,10.109732 -33.98837,6.879166 -1.262063,-0.489479 -3.897313,-1.703916 -4.217458,-4.410604 11.535833,3.569229 18.785416,0.195792 18.785416,0.195792 0,0 0.537104,-0.738188 -0.148166,-0.669397 z M 66.057051,84.741991 Z M 43.990801,35.132616 c 4.429125,-5.119688 9.884833,-9.572625 14.771687,-12.072938 a 0.19314583,0.19314583 0 0 1 0.264584,0.264584 c -0.386292,0.703791 -1.135063,2.206625 -1.373188,3.346979 a 0.1984375,0.1984375 0 0 0 0.306917,0.209021 c 3.040062,-2.071688 8.329083,-4.291542 12.964583,-4.577292 a 0.20372917,0.20372917 0 0 1 0.137583,0.365125 11.075458,11.075458 0 0 0 -2.039937,2.047875 0.1984375,0.1984375 0 0 0 0.156104,0.314854 c 3.257021,0.02381 7.847542,1.164167 10.847917,2.841625 0.201083,0.113771 0.05821,0.505354 -0.169334,0.455084 -18.40177,-4.217459 -32.564916,4.902729 -35.586458,7.09877 A 0.20108333,0.20108333 0 0 1 44.006676,35.12997 Z"
       id="path1828"
       style="stroke-width:0.264583;fill:#ffffff;fill-opacity:1" />
  </g>
</svg>
