<?xml version="1.0" encoding="UTF-8" standalone="no"?>
<!-- Created with Inkscape (http://www.inkscape.org/) -->

<svg
   width="115mm"
   height="115mm"
   viewBox="0 0 115 115"
   version="1.1"
   id="svg5"
   xmlns:xlink="http://www.w3.org/1999/xlink"
   xmlns="http://www.w3.org/2000/svg"
   xmlns:svg="http://www.w3.org/2000/svg">
  <defs
     id="defs2">
    <polygon
       id="path-1"
       points="79.741708,77.522807 0,77.522807 0,0.16195046 79.741708,0.16195046 " />
    <mask
       id="mask-2"
       fill="#ffffff">
      <use
         xlink:href="#path-1"
         id="use853"
         x="0"
         y="0"
         width="100%"
         height="100%" />
    </mask>
  </defs>
  <g
     id="layer1">
    <path
       id="path1080"
       style="fill:#ffffff;fill-opacity:1;stroke-width:1.2437"
       d="m 57.523352,1.5566619 c -30.90779,0 -55.9666901,25.0589001 -55.9666901,55.9666901 0,30.907789 25.0589001,55.966688 55.9666901,55.966688 30.907789,0 55.966688,-25.058899 55.966688,-55.966688 0,-30.90779 -25.052431,-55.9666901 -55.966688,-55.9666901 z M 59.27717,23.943338 c 0.873952,0 1.667966,0.356823 2.23721,0.937636 0.56924,0.580812 0.92549,1.375983 0.92549,2.261503 v 5.426629 l 0.655863,0.184593 c 0.05185,0.01739 0.102144,0.04089 0.148163,0.0753 0.160949,0.120759 0.391749,0.299006 0.685011,0.517401 0.230095,0.184076 0.4759,0.406462 0.774887,0.636426 0.592249,0.477338 1.300566,1.092803 2.076887,1.799973 0.206968,0.178341 0.408765,0.362465 0.592705,0.54655 1.000558,0.931408 2.122266,2.025631 3.191848,3.233144 0.299006,0.339149 0.592494,0.682223 0.891481,1.044518 0.299006,0.368012 0.613078,0.73081 0.889056,1.093101 0.362276,0.482927 0.753818,0.982696 1.093099,1.506044 0.161043,0.247252 0.345072,0.50092 0.5004,0.748168 0.436922,0.661278 0.82225,1.346576 1.190261,2.030736 0.155214,0.316257 0.316304,0.661513 0.45422,1.000794 0.408296,0.914246 0.730687,1.844934 0.937637,2.776474 0.06332,0.201233 0.108161,0.41906 0.131147,0.614563 v 0.04607 c 0.06891,0.276114 0.09359,0.570636 0.116622,0.869623 0.09204,0.954417 0.04419,1.90852 -0.162735,2.86878 -0.0863,0.408296 -0.199588,0.794103 -0.337645,1.202408 -0.138058,0.391044 -0.275974,0.79768 -0.454221,1.182975 -0.344978,0.799208 -0.753363,1.599055 -1.236417,2.346524 -0.155214,0.275973 -0.340606,0.569347 -0.524687,0.845325 -0.201233,0.293271 -0.406227,0.570218 -0.590275,0.840475 -0.252987,0.344978 -0.523202,0.705515 -0.799179,1.027512 -0.247253,0.33929 -0.501335,0.679944 -0.777313,0.978931 -0.385168,0.45422 -0.753955,0.885549 -1.139255,1.299574 -0.229954,0.270238 -0.475636,0.544637 -0.728731,0.791889 -0.247253,0.275973 -0.501199,0.523066 -0.731162,0.753024 -0.385309,0.38531 -0.706244,0.685533 -0.976501,0.932781 l -0.634,0.580559 c -0.0919,0.08047 -0.211152,0.126305 -0.337645,0.126305 h -4.899516 v 6.28411 h 6.162651 c 1.380016,0 2.692526,-0.487637 3.750545,-1.384594 0.362276,-0.316257 1.942486,-1.686369 3.811277,-3.750545 0.06318,-0.06905 0.143744,-0.120288 0.235641,-0.143322 l 17.02563,-4.921378 c 0.316258,-0.09204 0.638856,0.149808 0.638856,0.483392 v 3.604798 c 0,0.206968 -0.127011,0.390809 -0.310946,0.471251 -1.127047,0.483054 -4.985913,2.253183 -6.590176,4.484137 -4.094019,5.698282 -7.220609,13.848352 -14.212721,13.848352 H 43.779451 c -10.338668,0 -18.716291,-8.408764 -18.716291,-18.781878 v -0.332803 c 0,-0.275973 0.224314,-0.500399 0.500395,-0.500399 h 16.26289 c 0.321992,0 0.555847,0.298301 0.527117,0.614567 -0.115024,1.058019 0.08033,2.140562 0.580559,3.123836 0.966108,1.960697 2.968226,3.184563 5.130279,3.184563 h 8.05007 v -6.28411 h -7.957764 c -0.408202,0 -0.651186,-0.470476 -0.415394,-0.804036 0.08621,-0.132181 0.18558,-0.272306 0.289088,-0.427521 0.753316,-1.06946 1.828342,-2.730803 2.897929,-4.622598 0.730179,-1.276414 1.437198,-2.639583 2.006448,-4.00803 0.115024,-0.247253 0.206827,-0.498364 0.298771,-0.745734 0.155355,-0.436922 0.317338,-0.845236 0.432409,-1.253424 0.11493,-0.344978 0.206733,-0.707658 0.298771,-1.046944 0.270238,-1.161494 0.383805,-2.393849 0.383805,-3.670385 0,-0.500216 -0.02209,-1.022713 -0.06802,-1.523051 -0.02303,-0.546235 -0.09133,-1.090989 -0.160338,-1.637224 -0.04607,-0.483054 -0.133873,-0.962103 -0.225911,-1.462324 -0.115024,-0.730301 -0.275033,-1.453467 -0.459109,-2.183769 L 53.371981,43.40767 C 53.23383,42.907548 53.117677,42.431103 52.956634,41.930888 52.502414,40.361084 51.980683,38.82992 51.428728,37.398169 51.227495,36.828925 50.995566,36.282892 50.765579,35.736657 50.426289,34.914318 50.083365,34.167874 49.767216,33.460582 49.606173,33.13859 49.467881,32.846221 49.329965,32.547234 49.17475,32.207944 49.012344,31.868559 48.851433,31.54644 48.736409,31.299188 48.605685,31.069535 48.513788,30.839571 l -0.983783,-1.81697 c -0.138057,-0.247253 0.0918,-0.54114 0.361948,-0.466395 l 6.152935,1.666367 h 0.01692 c 0.01128,0 0.01645,0.0075 0.02209,0.0075 l 0.811321,0.223468 0.891486,0.252611 0.327915,0.09232 v -3.655804 c 0,-1.765316 1.414673,-3.19914 3.1627,-3.19914 z M 44.362435,36.018445 c 0.193713,-0.01081 0.390433,0.0902 0.480967,0.293929 2.43231,5.451153 4.532196,12.229425 3.548926,16.449932 -0.419764,1.736459 -1.570094,4.08875 -2.863919,6.262248 -0.166778,0.316257 -0.351042,0.626503 -0.54655,0.92549 -0.09204,0.137916 -0.246171,0.218625 -0.412949,0.218625 H 29.595878 c -0.402467,0 -0.640195,-0.4349 -0.427521,-0.76274 l 0.242928,-0.381361 14.560083,-22.775337 c 0.09303,-0.145954 0.240436,-0.222386 0.391091,-0.230753 z" />
  </g>
</svg>
