<?xml version="1.0" encoding="UTF-8" standalone="no"?>
<!-- Created with Inkscape (http://www.inkscape.org/) -->

<svg
   width="105mm"
   height="124mm"
   viewBox="0 0 105 124"
   version="1.1"
   id="svg5"
   xmlns:xlink="http://www.w3.org/1999/xlink"
   xmlns="http://www.w3.org/2000/svg"
   xmlns:svg="http://www.w3.org/2000/svg">
  <defs
     id="defs2">
    <polygon
       id="path-1"
       points="0,77.522807 0,0.16195046 79.741708,0.16195046 79.741708,77.522807 " />
    <mask
       id="mask-2"
       fill="#ffffff">
      <use
         xlink:href="#path-1"
         id="use853"
         x="0"
         y="0"
         width="100%"
         height="100%" />
    </mask>
  </defs>
  <g
     id="layer1">
    <path
       fill="currentColor"
       d="m 31.292095,72.962633 c -0.926041,5.08 -4.60375,28.760207 -5.688541,35.454157 -0.07937,0.47625 -0.264584,0.66146 -0.79375,0.66146 H 5.0718829 c -2.01083,0 -3.46604,-1.74625 -3.20145,-3.67771 L 17.375013,7.0020075 c 0.39687,-2.5399997 2.67229,-4.471458 5.291666,-4.471458 40.296041,0 43.682708,-0.9789583 53.975,3.01625 C 92.543137,11.711592 93.998345,26.581175 88.283345,42.667842 82.594804,59.230758 69.101054,66.34805 51.21522,66.559717 39.732304,66.744925 32.826679,64.707633 31.292095,72.962633 Z M 96.30022,34.889092 c -0.47625,-0.343959 -0.661458,-0.47625 -0.79375,0.343958 -0.529166,3.01625 -1.349375,5.953125 -2.328333,8.89 -10.556875,30.109583 -39.819792,27.490208 -54.107292,27.490208 -1.613958,0 -2.672291,0.873125 -2.883958,2.487084 -5.979583,37.147508 -7.170208,44.899798 -7.170208,44.899798 -0.264584,1.87854 0.926041,3.41312 2.804583,3.41312 h 16.801042 c 2.275416,0 4.153958,-1.66687 4.60375,-3.94229 0.185208,-1.42875 -0.291042,1.61396 3.81,-24.156462 1.217083,-5.820833 3.783541,-5.212291 7.752291,-5.212291 18.785417,0 33.443334,-7.62 37.808955,-29.712709 1.71979,-9.2075 1.21708,-18.89125 -6.29708,-24.500416 z"
       id="path2671"
       style="stroke-width:0.264583;fill:#ffffff;fill-opacity:1" />
  </g>
</svg>
