<?xml version="1.0" encoding="UTF-8" standalone="no"?>
<!-- Created with Inkscape (http://www.inkscape.org/) -->

<svg
   width="125mm"
   height="166mm"
   viewBox="0 0 125 166"
   version="1.1"
   id="svg5"
   xmlns="http://www.w3.org/2000/svg"
   xmlns:svg="http://www.w3.org/2000/svg">
  <defs
     id="defs2" />
  <g
     id="layer1">
    <g
       id="g281"
       transform="matrix(-4.4144916,0,0,4.4144916,-185.449,-332.94668)"
       style="stroke:#000000;stroke-opacity:1;stroke-width:0.67957995;stroke-miterlimit:4;stroke-dasharray:none">
      <path
         style="fill:none;stroke:#000000;stroke-width:0.67957995;stroke-linecap:butt;stroke-linejoin:miter;stroke-opacity:1;stroke-miterlimit:4;stroke-dasharray:none"
         d="m -70.063669,84.415364 3.533833,-3.029003 5.37287,-3.461713 6.094061,-2.019334 7.320084,0.540893 2.019334,2.848703 3.353539,4.795916 v 6.634957 l -1.947217,5.336809 -0.973606,5.048338 -2.848703,3.46171 -7.752799,8.25764 -2.848703,-5.22864 -5.156515,2.01933 -2.091452,-1.37026 -0.216357,-2.99294 -0.757251,-0.90149 0.793311,-0.68513 -0.937549,-0.10818 -0.03606,-2.05539 -1.766916,-1.1539 2.343869,-6.418599 -1.045726,-0.973609 0.144238,-5.156512 z"
         id="path54" />
      <path
         style="fill:none;stroke:#000000;stroke-width:0.67957995;stroke-linecap:butt;stroke-linejoin:miter;stroke-opacity:1;stroke-miterlimit:4;stroke-dasharray:none"
         d="m -55.892273,112.83028 0.576953,-8.54612 7.175846,0.28848 -0.07212,-2.99294 2.920823,-0.46877 -2.776585,-3.678076 3.750191,-1.370264 -0.829369,-5.589225 2.776586,0.252418"
         id="path56" />
      <path
         style="fill:none;stroke:#000000;stroke-width:0.67957995;stroke-linecap:butt;stroke-linejoin:miter;stroke-opacity:1;stroke-miterlimit:4;stroke-dasharray:none"
         d="m -42.369948,84.090824 -2.776586,6.382541 -3.886004,1.344715 1.198404,-11.780048 2.116328,-0.790438"
         id="path58" />
      <path
         style="fill:none;stroke:#000000;stroke-width:0.67957995;stroke-linecap:butt;stroke-linejoin:miter;stroke-opacity:1;stroke-miterlimit:4;stroke-dasharray:none"
         d="m -42.369948,84.090824 -5.464186,-4.052792 2.6876,10.435333"
         id="path60" />
      <path
         style="fill:none;stroke:#000000;stroke-width:0.67957995;stroke-linecap:butt;stroke-linejoin:miter;stroke-opacity:1;stroke-miterlimit:4;stroke-dasharray:none"
         d="m -47.742821,76.446207 -0.09131,3.591825 -7.228771,-4.132718 -2.995904,8.237887 -3.098157,-6.218555 -1.134499,7.697435 -4.238371,-4.235722 -0.937548,6.418601 4.487474,4.166108 0.713943,-6.374485 1.682864,3.493217 2.626286,-4.997595 -4.283652,1.580872 -5.226915,2.131883"
         id="path62" />
      <path
         style="fill:none;stroke:#000000;stroke-width:0.67957995;stroke-linecap:butt;stroke-linejoin:miter;stroke-opacity:1;stroke-miterlimit:4;stroke-dasharray:none"
         d="m -58.058806,84.143201 10.224675,-4.105169 -4.258159,11.652559 z"
         id="path64" />
      <path
         style="fill:none;stroke:#000000;stroke-width:0.67957995;stroke-linecap:butt;stroke-linejoin:miter;stroke-opacity:1;stroke-miterlimit:4;stroke-dasharray:none"
         d="m -56.885903,91.027643 4.793613,0.662948 3.059752,0.127487 -1.529876,2.524297 -1.529876,-2.651784 -2.422303,4.717119 3.977677,-2.116331 2.46956,3.141475 -0.965182,-5.614776 4.715373,4.244512"
         id="path66" />
      <path
         style="fill:none;stroke:#000000;stroke-width:0.67957995;stroke-linecap:butt;stroke-linejoin:miter;stroke-opacity:1;stroke-miterlimit:4;stroke-dasharray:none"
         d="m -48.211594,101.5797 0.144238,-4.146846 -6.447237,-1.025144 6.302999,5.17199 -7.103726,2.70446 0.800727,-7.87645 -4.309152,6.29799 3.508425,1.57846 -4.349859,0.46137 0.994421,1.73386 3.355438,-2.19523 -3.425656,3.31748 0.09572,-1.19874 -2.524297,1.17291 2.428581,0.0258"
         id="path68" />
      <path
         style="fill:none;stroke:#000000;stroke-width:0.67957995;stroke-linecap:butt;stroke-linejoin:miter;stroke-opacity:1;stroke-miterlimit:4;stroke-dasharray:none"
         d="m -63.897491,109.62097 2.727939,-2.04516 -4.819391,0.6749 1.275173,-4.32111 3.544218,3.64621 1.504373,-2.83028 -4.997595,-0.71394 5.839029,-1.32589 -0.841434,2.03983"
         id="path70" />
      <path
         style="fill:none;stroke:#000000;stroke-width:0.67957995;stroke-linecap:butt;stroke-linejoin:miter;stroke-opacity:1;stroke-miterlimit:4;stroke-dasharray:none"
         d="m -66.2053,105.25777 1.49153,-1.32817 -1.45547,-0.25845"
         id="path72" />
      <path
         style="fill:none;stroke:#000000;stroke-width:0.67957995;stroke-linecap:butt;stroke-linejoin:miter;stroke-opacity:1;stroke-miterlimit:4;stroke-dasharray:none"
         d="m -67.142849,101.50758 0.973609,1.78494 0.716031,-2.90713 0.739439,3.54421 3.238238,-5.405562 2.651787,4.181662"
         id="path74" />
      <path
         style="fill:none;stroke:#000000;stroke-width:0.67957995;stroke-linecap:butt;stroke-linejoin:miter;stroke-opacity:1;stroke-miterlimit:4;stroke-dasharray:none"
         d="m -68.909765,100.35368 3.456556,0.0317 0.12749,-5.22708 3.850187,3.365728 3.034255,-5.992016 3.926684,3.875688 -2.37131,-5.380067 -1.172903,-6.884442"
         id="path76" />
      <path
         style="fill:none;stroke:#000000;stroke-width:0.67957995;stroke-linecap:butt;stroke-linejoin:miter;stroke-opacity:1;stroke-miterlimit:4;stroke-dasharray:none"
         d="m -67.611622,92.961472 c 0.83252,-0.07248 4.631717,-0.990404 4.631717,-0.990404 l -3.585991,1.964013 1.240177,1.223219 2.345814,-3.187232 1.1729,1.019916 -3.518714,2.167316 -3.584046,5.19538"
         id="path78" />
      <path
         style="fill:none;stroke:#000000;stroke-width:0.67957995;stroke-linecap:butt;stroke-linejoin:miter;stroke-opacity:1;stroke-miterlimit:4;stroke-dasharray:none"
         d="m -62.979905,91.971068 2.396805,-2.88127 -1.223905,3.901186 3.365728,-0.458973 -2.141823,-3.442213 3.697197,1.937834 -1.555374,1.504379"
         id="path80" />
      <path
         style="fill:none;stroke:#000000;stroke-width:0.67957995;stroke-linecap:butt;stroke-linejoin:miter;stroke-opacity:1;stroke-miterlimit:4;stroke-dasharray:none"
         d="m -61.807005,92.990984 0.331473,5.533054 6.960939,-2.116328"
         id="path82" />
      <path
         style="fill:none;stroke:#000000;stroke-width:0.67957995;stroke-linecap:butt;stroke-linejoin:miter;stroke-opacity:1;stroke-miterlimit:4;stroke-dasharray:none"
         d="m -67.142849,101.50758 1.68964,-1.1222 3.977677,-1.861342"
         id="path84" />
    </g>
  </g>
</svg>
