<?xml version="1.0" encoding="UTF-8" standalone="no"?>
<!-- Created with Inkscape (http://www.inkscape.org/) -->

<svg
   width="105mm"
   height="105mm"
   viewBox="0 0 105 105"
   version="1.1"
   id="svg5"
   xmlns:xlink="http://www.w3.org/1999/xlink"
   xmlns="http://www.w3.org/2000/svg"
   xmlns:svg="http://www.w3.org/2000/svg">
  <defs
     id="defs2">
    <polygon
       id="path-1"
       points="79.741708,77.522807 0,77.522807 0,0.16195046 79.741708,0.16195046 " />
    <mask
       id="mask-2"
       fill="#ffffff">
      <use
         xlink:href="#path-1"
         id="use853"
         x="0"
         y="0"
         width="100%"
         height="100%" />
    </mask>
    <polygon
       id="path-1-4"
       points="79.741708,77.522807 0,77.522807 0,0.16195046 79.741708,0.16195046 " />
    <mask
       id="mask-2-1"
       fill="#ffffff">
      <use
         xlink:href="#path-1-4"
         id="use853-2"
         x="0"
         y="0"
         width="100%"
         height="100%" />
    </mask>
  </defs>
  <g
     id="layer1">
    <g
       id="g955"
       transform="matrix(4.8933548,0,0,4.8933548,0.47371061,0.72322915)"
       style="fill:#ffffff;fill-opacity:1">
      <rect
         id="Rectangle-Copy"
         fill="#000000"
         opacity="0"
         x="0.074802138"
         y="0.023810729"
         width="21.166666"
         height="21.166666"
         style="fill-rule:evenodd;stroke:none;stroke-width:0.264583;fill:#ffffff;fill-opacity:1" />
      <path
         d="M 71.46386,70.225614 C 56.345965,71.019298 53.256842,53.720351 47.325614,53.843509 c -2.527368,0.05298 -4.519298,2.695438 -3.644561,5.775088 0.481052,1.692982 1.815438,4.175789 2.65614,5.716491 2.965614,5.436842 -1.418597,11.589473 -6.549123,12.109824 -8.525965,0.864913 -12.082456,-4.081052 -11.862456,-9.14421 0.247368,-5.68386 5.066667,-11.491579 0.12386,-13.962807 -5.18,-2.589825 -9.390877,7.537544 -14.34772,9.797895 C 9.2154386,66.181754 2.9877193,64.595439 0.77368421,59.613684 -0.78140351,56.112982 -0.49859649,49.372281 6.4252632,46.800351 10.750175,45.194035 20.38807,48.901053 20.882456,44.205614 21.452281,38.792982 10.757544,38.336491 7.5375439,37.038596 1.84,34.742456 -1.522807,29.829123 1.1119298,24.558246 3.0887719,20.604561 8.9052632,18.995789 13.344912,20.727719 c 5.318597,2.074737 6.172281,7.591228 8.897193,9.885263 2.347369,1.977193 5.56,2.224562 7.661053,0.865264 1.549474,-1.002807 2.065263,-3.205264 1.480702,-5.217193 -0.775439,-2.670878 -2.833334,-4.337544 -4.841053,-5.970527 -3.572982,-2.904561 -8.617193,-5.402105 -5.565965,-13.3301751 2.501053,-6.497193 9.836491,-6.73122809 9.836491,-6.73122809 2.914386,-0.3277193 5.524211,0.5522807 7.650877,2.45228069 2.843158,2.54 3.396843,5.9350877 2.921053,9.5571935 -0.434737,3.306315 -1.604912,6.202105 -2.215088,9.477894 -0.70807,3.803158 1.324562,7.635439 5.190176,7.784562 5.084561,0.196491 6.609123,-3.711579 7.231228,-6.188772 0.910877,-3.624562 2.106316,-6.989474 5.470175,-9.108772 4.82772,-3.041755 11.533685,-2.375088 14.644913,3.470877 2.461052,4.625614 1.670877,10.993333 -2.104211,14.470526 -1.693684,1.559649 -3.730175,2.109474 -5.932982,2.124913 -3.158948,0.02246 -6.316491,-0.05509 -9.248772,1.423157 -1.996141,1.005965 -2.865965,2.645264 -2.865614,4.842457 0,2.141403 1.114737,3.54 2.921052,4.450175 3.402106,1.714737 7.157544,2.065263 10.832632,2.708772 5.329474,0.933333 10.015439,2.810526 13.02386,7.75614 0.02702,0.04351 0.05333,0.08737 0.07895,0.131579 3.455088,5.855439 -0.158246,14.286667 -6.947719,14.643509"
         id="Fill-1"
         fill="#0ac855"
         mask="url(#mask-2-1)"
         transform="matrix(0.26458333,0,0,0.26458333,0.07480214,0.34873758)"
         style="fill:#ffffff;fill-opacity:1;fill-rule:evenodd;stroke:none;stroke-width:1" />
    </g>
  </g>
</svg>
