<?xml version="1.0" encoding="UTF-8" standalone="no"?>
<!-- Created with Inkscape (http://www.inkscape.org/) -->

<svg
   width="105mm"
   height="75mm"
   viewBox="0 0 105 75"
   version="1.1"
   id="svg5"
   xmlns:xlink="http://www.w3.org/1999/xlink"
   xmlns="http://www.w3.org/2000/svg"
   xmlns:svg="http://www.w3.org/2000/svg">
  <defs
     id="defs2">
    <polygon
       id="path-1"
       points="0,0.16195046 79.741708,0.16195046 79.741708,77.522807 0,77.522807 " />
    <mask
       id="mask-2"
       fill="#ffffff">
      <use
         xlink:href="#path-1"
         id="use853"
         x="0"
         y="0"
         width="100%"
         height="100%" />
    </mask>
    <polygon
       id="path-1-4"
       points="0,0.16195046 79.741708,0.16195046 79.741708,77.522807 0,77.522807 " />
    <mask
       id="mask-2-1"
       fill="#ffffff">
      <use
         xlink:href="#path-1-4"
         id="use853-2"
         x="0"
         y="0"
         width="100%"
         height="100%" />
    </mask>
  </defs>
  <g
     id="layer1">
    <path
       fill="currentColor"
       d="M 101.92904,13.101807 C 100.75046,8.6640886 97.277972,5.1690798 92.868965,3.9829979 84.87732,1.8277488 52.831731,1.8277488 52.831731,1.8277488 c 0,0 -32.0454,0 -40.037231,2.1552491 C 8.385486,5.169267 4.9129939,8.6640886 3.7344167,13.101807 1.5930565,21.145431 1.5930565,37.927704 1.5930565,37.927704 c 0,0 0,16.782272 2.1413602,24.825896 1.1785772,4.437723 4.6510693,7.78712 9.0600833,8.973204 7.991831,2.155246 40.037231,2.155246 40.037231,2.155246 0,0 32.045398,0 40.037234,-2.155246 4.409007,-1.186084 7.881495,-4.535481 9.060075,-8.973204 2.14138,-8.043624 2.14138,-24.825896 2.14138,-24.825896 0,0 0,-16.782273 -2.14138,-24.825897 z M 42.35102,53.164749 V 22.690658 l 26.783747,15.237421 z"
       id="path3062"
       style="stroke-width:0.187641;fill:#ffffff;fill-opacity:1" />
  </g>
</svg>
